<svg xmlns="http://www.w3.org/2000/svg" viewBox="0 0 260 260"><defs><style>.cls-1{fill:#29abe2;}.cls-2,.cls-3{fill:#fff;}.cls-3{font-size:199.92px;font-family:RampartOne-Regular, Rampart One;}</style></defs><g id="Layer_2" data-name="Layer 2"><g id="Layer_1-2" data-name="Layer 1"><rect class="cls-1" width="260" height="260"/><path class="cls-2" d="M154.72,63.4a4.67,4.67,0,0,0,2.05-5.18,4.57,4.57,0,0,0-3.71-3.41,4.47,4.47,0,0,0-4.62,2.35,5.63,5.63,0,0,1-4.6,2.88L86.25,64.25a5.61,5.61,0,0,1-5-2.18,4.46,4.46,0,0,0-4.9-1.66,4.59,4.59,0,0,0-3.2,3.91A4.69,4.69,0,0,0,76,69.16a4.68,4.68,0,0,0-2,5.18,4.57,4.57,0,0,0,3.71,3.41,4.47,4.47,0,0,0,4.62-2.35,5.66,5.66,0,0,1,4.6-2.89l57.6-4.2a5.61,5.61,0,0,1,4.95,2.18,4.46,4.46,0,0,0,4.9,1.66,4.61,4.61,0,0,0,3.2-3.91A4.68,4.68,0,0,0,154.72,63.4Z"/><text class="cls-3" transform="translate(51.73 204.59) scale(1.23 1)">T</text></g></g></svg>