<svg id="Layer_1" data-name="Layer 1" xmlns="http://www.w3.org/2000/svg" viewBox="0 0 147.5 167.93">
  <defs>
    <style>
      .cls-1 {
        fill: #9ce861;
      }
    </style>
  </defs>
  <path class="cls-1" d="M45.6,22.38a4.61,4.61,0,0,0,3.2,3.91,4.46,4.46,0,0,0,4.9-1.66,5.61,5.61,0,0,1,5-2.18l57.6,4.2a5.67,5.67,0,0,1,4.6,2.89,4.47,4.47,0,0,0,4.62,2.35,4.56,4.56,0,0,0,3.71-3.41,4.68,4.68,0,0,0-2-5.18,4.68,4.68,0,0,0,2.85-4.84,4.61,4.61,0,0,0-3.2-3.91,4.46,4.46,0,0,0-4.9,1.66,5.61,5.61,0,0,1-5,2.18L59.32,14.14a5.65,5.65,0,0,1-4.6-2.88A4.47,4.47,0,0,0,50.1,8.91a4.56,4.56,0,0,0-3.71,3.41,4.68,4.68,0,0,0,2,5.18A4.68,4.68,0,0,0,45.6,22.38Z" transform="translate(0 0)"/>
  <path class="cls-1" d="M82.61,167.93l-42.43-3.2V46.38L0,43.58V10L24.66,0,147.5,8.79V42.38l-24.66,10-15.54-1V158.14ZM67.32,34.58V153.33l37.49,2.6V37.34L145,40.14V10.59L27.13,2.2V31.78Z" transform="translate(0 0)"/>
</svg>
