<svg id="Layer_1" data-name="Layer 1" xmlns="http://www.w3.org/2000/svg" viewBox="0 0 147.5 167.93">
  <defs>
    <style>
      .cls-1 {
        fill: #fff;
      }
    </style>
  </defs>
  <path class="cls-1" d="M101.28,68.24a4.61,4.61,0,0,0,3.2,3.91,4.46,4.46,0,0,0,4.9-1.66,5.61,5.61,0,0,1,5-2.18l57.6,4.2a5.67,5.67,0,0,1,4.6,2.89,4.47,4.47,0,0,0,4.62,2.35,4.56,4.56,0,0,0,3.71-3.41,4.68,4.68,0,0,0-2-5.18,4.68,4.68,0,0,0,2.85-4.84,4.6,4.6,0,0,0-3.2-3.91,4.46,4.46,0,0,0-4.9,1.66,5.61,5.61,0,0,1-5,2.18L115,60a5.64,5.64,0,0,1-4.6-2.88,4.47,4.47,0,0,0-4.62-2.35,4.56,4.56,0,0,0-3.71,3.41,4.68,4.68,0,0,0,2,5.18A4.69,4.69,0,0,0,101.28,68.24Z" transform="translate(-55.68 -45.86)"/>
  <path class="cls-1" d="M138.29,213.79l-42.43-3.2V92.24l-40.18-2.8V55.86l24.66-10,122.84,8.79V88.24l-24.66,10-15.54-1V204ZM123,80.44V199.19l37.49,2.6V83.2L200.72,86V56.45L82.81,48.06V77.64Z" transform="translate(-55.68 -45.86)"/>
</svg>
