<svg id="Layer_1" data-name="Layer 1" xmlns="http://www.w3.org/2000/svg" viewBox="0 0 1212 260"><defs><style>.cls-1{fill:#1d1d1b;}.cls-2,.cls-4{fill:#fff;}.cls-3{fill:#29abe2;}.cls-4{font-size:12.3px;font-family:RampartOne-Regular, Rampart One;}</style></defs><rect class="cls-1" x="952" width="260" height="260"/><path class="cls-2" d="M154.22,64.53a4.69,4.69,0,0,0,2.05-5.19,4.57,4.57,0,0,0-3.71-3.41,4.49,4.49,0,0,0-4.62,2.36,5.65,5.65,0,0,1-4.6,2.88L85.75,65.38a5.65,5.65,0,0,1-5-2.19,4.46,4.46,0,0,0-4.9-1.66,4.62,4.62,0,0,0-3.2,3.92,4.68,4.68,0,0,0,2.76,4.83,4.7,4.7,0,0,0-2,5.19,4.57,4.57,0,0,0,3.71,3.41,4.49,4.49,0,0,0,4.62-2.36,5.65,5.65,0,0,1,4.6-2.88l57.6-4.21a5.61,5.61,0,0,1,4.95,2.18,4.46,4.46,0,0,0,4.9,1.67,4.69,4.69,0,0,0,.44-8.75Z" transform="translate(952)"/><path class="cls-2" d="M95.38,204.11V97.36l-15.54,1-24.66-10V54.78L178,46l24.66,10V89.56l-40.2,2.8V210.71l-42.43,3.2ZM175.55,77.77V48.18L57.64,56.58V86.16l40.21-2.79V201.92l37.49-2.6V80.57Z" transform="translate(952)"/><rect class="cls-3" y="47" width="16" height="16"/><path class="cls-2" d="M-942.48,50.9a.3.3,0,0,0,.13-.32.29.29,0,0,0-.23-.21.31.31,0,0,0-.29.15.35.35,0,0,1-.28.18l-3.54.25a.33.33,0,0,1-.31-.13.26.26,0,0,0-.3-.1.31.31,0,0,0-.2.24.32.32,0,0,0,.17.3.27.27,0,0,0-.12.31.28.28,0,0,0,.23.21.26.26,0,0,0,.28-.14.35.35,0,0,1,.28-.18l3.55-.26a.34.34,0,0,1,.3.14.27.27,0,0,0,.3.1.28.28,0,0,0,.2-.24A.28.28,0,0,0-942.48,50.9Z" transform="translate(952)"/><text class="cls-4" transform="translate(3.18 59.59) scale(1.23 1)">T</text></svg>