<svg id="Layer_1" data-name="Layer 1" xmlns="http://www.w3.org/2000/svg" viewBox="0 0 1154.68 298.02">
  <defs>
    <style>
      .cls-1 {
        fill: #1d1d1b;
      }

      .cls-2, .cls-4 {
        fill: #fff;
      }

      .cls-3 {
        fill: #29abe2;
      }

      .cls-4 {
        font-size: 12.3px;
        font-family: RampartOne-Regular, Rampart One;
      }
    </style>
  </defs>
  <rect class="cls-1" x="643" y="38.02" width="260" height="260"/>
  <path class="cls-2" d="M103.64,64.53a4.71,4.71,0,0,1-2.06-5.19,4.58,4.58,0,0,1,3.72-3.41,4.49,4.49,0,0,1,4.62,2.36,5.65,5.65,0,0,0,4.59,2.88l57.6,4.21a5.63,5.63,0,0,0,4.95-2.19A4.48,4.48,0,0,1,182,61.53a4.62,4.62,0,0,1,3.2,3.92,4.68,4.68,0,0,1-2.76,4.83,4.71,4.71,0,0,1,2.05,5.19,4.57,4.57,0,0,1-3.71,3.41,4.51,4.51,0,0,1-4.63-2.36,5.62,5.62,0,0,0-4.59-2.88l-57.6-4.21a5.61,5.61,0,0,0-5,2.18,4.47,4.47,0,0,1-4.9,1.67,4.69,4.69,0,0,1-.44-8.75Z" transform="translate(952 -45.98)"/>
  <path class="cls-2" d="M137.81,213.91l-42.43-3.2V92.36l-40.2-2.8V56L79.84,46l122.84,8.8V88.36L178,98.36l-15.54-1V204.11ZM122.52,80.57V199.32l37.49,2.6V83.37l40.21,2.79V56.58L82.31,48.18V77.77Z" transform="translate(952 -45.98)"/>
  <rect class="cls-3" y="1.02" width="16" height="16"/>
  <path class="cls-2" d="M-942.48,50.9a.3.3,0,0,0,.13-.32.29.29,0,0,0-.23-.21.31.31,0,0,0-.29.15.35.35,0,0,1-.28.18l-3.54.25a.33.33,0,0,1-.31-.13.26.26,0,0,0-.3-.1.31.31,0,0,0-.2.24.32.32,0,0,0,.17.3.27.27,0,0,0-.12.31.28.28,0,0,0,.23.21.26.26,0,0,0,.28-.14.35.35,0,0,1,.28-.18l3.55-.26a.34.34,0,0,1,.3.14.27.27,0,0,0,.3.1.28.28,0,0,0,.2-.24A.28.28,0,0,0-942.48,50.9Z" transform="translate(952 -45.98)"/>
  <text class="cls-4" transform="translate(3.18 13.61) scale(1.23 1)">T</text>
</svg>
